# xmcd CD database file
#
# Track frame offsets:
#	150
#	18218
#	34460
#	53985
#
# Disc length: 957 seconds
#
# Revision: 2
# Processed by: cddbd v1.5.2PL0 Copyright (c) Steve Scherf et al.
# Submitted via: CDex 1.70beta2
#
DISCID=2d03bb04
DTITLE=中林芽依 - Crazy Crazy Crazy
DYEAR=2005
DGENRE=JPop
TTITLE0=Crazy Crazy Crazy
TTITLE1=Not that Girl
TTITLE2=My Precious
TTITLE3=Crazy Crazy Crazy (Instrumental)
EXTD=YEAR: 2005
EXTT0=
EXTT1=
EXTT2=
EXTT3=
PLAYORDER=
